<svg preserveAspectRatio="none" width="100%" height="100%" overflow="visible" style="display: block;" viewBox="0 0 24 24" fill="none" xmlns="http://www.w3.org/2000/svg">
<g id="Group 2087326139">
<path id="Union" d="M8.61913 0C9.46785 0 9.93714 0.6875 9.67004 1.5375C7.48501 8.5125 5.29915 15.4867 3.11246 22.46C2.84536 23.31 1.95171 23.9975 1.11048 24C0.271753 24 -0.190049 23.31 0.0745513 22.46C2.25292 15.4867 4.43046 8.5125 6.60717 1.5375C6.87427 0.6875 7.77541 0 8.61913 0ZM9.92965 13.6775C10.2142 13.6775 10.3665 13.9075 10.2766 14.1925C9.57602 16.4108 8.87541 18.6283 8.1748 20.845C8.08494 21.13 7.79038 21.36 7.50831 21.36C7.22873 21.36 7.07646 21.13 7.16633 20.845C7.86361 18.6283 8.56172 16.4108 9.26066 14.1925C9.35052 13.9075 9.65007 13.6775 9.92965 13.6775ZM22.8876 8.1575C23.7313 8.1575 24.1956 8.8475 23.921 9.6975C23.4284 11.2325 22.935 12.7667 22.4407 14.3C22.1686 15.15 21.2625 15.84 20.4188 15.84C19.5776 15.84 19.1183 15.15 19.3903 14.3C19.8829 12.7667 20.3747 11.2325 20.8656 9.6975C21.1377 8.8475 22.0438 8.1575 22.8876 8.1575ZM18.1971 5.28C18.4792 5.28 18.6365 5.5075 18.5441 5.7925C18.2462 6.73083 17.9475 7.66833 17.648 8.605C17.5581 8.89 17.2561 9.12 16.974 9.12C16.6919 9.12 16.5397 8.89 16.6295 8.605C16.9274 7.66833 17.2261 6.73083 17.5257 5.7925C17.6155 5.5075 17.9151 5.28 18.1971 5.28Z" fill="var(--fill-0, white)"/>
<path id="Union_2" d="M16.5917 10.32C17.4355 10.32 17.8997 11.0075 17.6277 11.8575C17.0618 13.6325 16.4952 15.4067 15.9277 17.18C15.6581 18.03 14.7595 18.7175 13.9183 18.7175C13.077 18.7175 12.6152 18.03 12.8848 17.18C13.4473 15.4067 14.0106 13.6325 14.5748 11.8575C14.8444 11.0075 15.748 10.32 16.5917 10.32ZM13.414 2.64001C14.2603 2.64001 14.7295 3.32751 14.4624 4.17751C13.7735 6.35251 13.0854 8.52668 12.3981 10.7C12.1285 11.55 11.2273 12.24 10.3836 12.24C9.54239 12.2375 9.07559 11.55 9.34269 10.7C10.0267 8.52668 10.7115 6.35251 11.3971 4.17751C11.6642 3.32751 12.5653 2.64001 13.414 2.64001Z" fill="var(--fill-0, #00D8DC)"/>
</g>
</svg>
