<svg preserveAspectRatio="none" width="100%" height="100%" overflow="visible" style="display: block;" viewBox="0 0 112.75 17.25" fill="none" xmlns="http://www.w3.org/2000/svg">
<path id="Union" d="M66.6144 4.27905C63.6377 8.58384 60.6659 12.8886 57.6991 17.1934L57.662 17.2473L57.5966 17.2476C56.8619 17.2492 56.127 17.25 55.3923 17.25H55.1541L55.2896 17.054C56.1834 15.7612 57.0772 14.4691 57.971 13.178C57.6816 10.1921 57.3899 7.20613 57.0956 4.22021L57.0819 4.08301H57.2198L59.5037 4.08545L59.6206 4.08569L59.6282 4.20215C59.7674 6.30046 59.9066 8.40031 60.0458 10.5017C61.4039 8.38204 62.763 6.26162 64.1228 4.14038L64.1599 4.08276L64.2282 4.08301C64.9909 4.08467 65.752 4.08467 66.5114 4.08301L66.7503 4.08228L66.6144 4.27905ZM45.4952 1.56128C45.3664 2.00853 45.2377 2.45583 45.1089 2.90308C44.9954 3.29711 44.8817 3.69117 44.7682 4.08521C45.5389 4.08386 46.3089 4.0839 47.0782 4.08545L47.2442 4.08569L46.6184 6.24829H46.5244C45.7297 6.24829 44.9358 6.24919 44.1427 6.25073C43.9511 6.91485 43.7597 7.57905 43.5681 8.24316C43.3679 8.93734 43.1675 9.63151 42.9673 10.3257L42.967 10.3254C42.8603 10.7003 42.8852 10.9655 43.0017 11.1465C43.133 11.3122 43.3673 11.4104 43.7548 11.4128C44.0798 11.4128 44.4196 11.3581 44.7748 11.2559L44.992 11.1934L44.9293 11.4106C44.7464 12.0443 44.5627 12.6771 44.3782 13.3091L44.3594 13.3735L44.2954 13.3933C43.794 13.5494 43.2653 13.626 42.7225 13.626C41.7853 13.6234 41.1015 13.3607 40.7244 12.8057L40.7227 12.8032C40.3623 12.2448 40.3422 11.4702 40.618 10.511C41.0265 9.08943 41.4351 7.66944 41.8436 6.25098H40.43L41.0502 4.08545H42.4665C42.7139 3.22108 42.9619 2.35745 43.2108 1.49463L43.2367 1.4043H43.3309C44.0139 1.4043 44.6953 1.40327 45.3749 1.40161L45.5414 1.40137L45.4952 1.56128ZM109.632 3.86084C110.463 3.8583 111.15 4.02866 111.68 4.37744L111.777 4.44409C112.253 4.78574 112.553 5.26047 112.679 5.85938L112.703 5.97949C112.81 6.58545 112.733 7.27482 112.486 8.04712L112.486 8.04761C112.312 8.58324 112.102 9.06801 111.855 9.49341L111.818 9.55566H105.837C105.722 10.2011 105.792 10.6868 106.019 11.0371C106.256 11.3839 106.674 11.5703 107.314 11.5703H107.315C107.708 11.5726 108.099 11.4715 108.495 11.2651C108.906 11.0485 109.283 10.7468 109.628 10.3533L109.698 10.2739L109.788 10.3293C110.246 10.6119 110.706 10.8937 111.166 11.1746L111.289 11.25L111.197 11.3611C110.624 12.0513 109.957 12.5986 109.201 12.9885L109.199 12.9895C108.442 13.3673 107.627 13.5613 106.755 13.5613C105.841 13.5587 105.092 13.3681 104.512 12.9814L104.509 12.9797C103.939 12.5778 103.584 12.0021 103.439 11.2732L103.438 11.2698C103.312 10.5285 103.404 9.68198 103.709 8.72168L103.77 8.53882C104.079 7.63211 104.507 6.83872 105.052 6.15991C105.649 5.42139 106.336 4.85806 107.118 4.46533C107.906 4.06257 108.745 3.8609 109.632 3.86084ZM26.61 3.8584C27.6811 3.86088 28.4853 4.14794 28.9969 4.74219L29.0457 4.80054L29.0459 4.80103C29.553 5.43913 29.6459 6.28342 29.3576 7.30713C28.8025 9.28577 28.2465 11.2653 27.6897 13.2456L27.6641 13.3367H27.5694C26.8864 13.3367 26.2034 13.3374 25.5205 13.3391L25.3553 13.3396L25.3997 13.1804C25.4721 12.9217 25.544 12.6641 25.6157 12.4077C25.3071 12.7314 24.9384 12.991 24.5086 13.1814C23.9744 13.4352 23.4236 13.5586 22.85 13.5586C21.9951 13.5611 21.3412 13.325 20.9131 12.8296L20.9119 12.8284C20.4898 12.327 20.4118 11.6606 20.6378 10.8486C20.9115 9.85459 21.5272 9.08321 22.4707 8.53687L22.4712 8.53638C23.4224 7.99154 24.5998 7.72437 25.9964 7.72437C26.3072 7.72437 26.6179 7.72329 26.9287 7.72192C26.9616 7.60545 26.9949 7.48796 27.0278 7.36938V7.3689C27.169 6.86852 27.1208 6.5048 26.9285 6.24829L26.9277 6.24707C26.7405 5.99165 26.4175 5.84938 25.9166 5.84937C25.2699 5.84937 24.5411 6.1509 23.7323 6.78296L23.6388 6.85596L23.5609 6.7666C23.2369 6.39424 22.9121 6.02177 22.5864 5.64941L22.5029 5.5542L22.5996 5.47192C23.8543 4.40396 25.1934 3.85843 26.6095 3.8584H26.61ZM86.3717 3.8584C87.2598 3.8584 87.9837 4.057 88.5345 4.4585L88.6363 4.53662C89.1311 4.93689 89.4344 5.48898 89.5512 6.18335L89.5737 6.32324C89.6738 7.02991 89.5799 7.83958 89.2982 8.74683C88.9947 9.71829 88.5489 10.5684 87.9624 11.2974C87.3913 12.0183 86.717 12.5813 85.9394 12.9741L85.9389 12.9744C85.1635 13.3622 84.3316 13.5586 83.4473 13.5586C82.5669 13.5586 81.8454 13.3627 81.2945 12.9612L81.2943 12.9609C80.7437 12.5578 80.407 11.9787 80.2775 11.238C80.1484 10.4991 80.2404 9.64499 80.5382 8.67554C80.8364 7.70455 81.2718 6.85493 81.8431 6.12842C82.4171 5.3992 83.0943 4.84096 83.8718 4.45068L84.0184 4.37866C84.7549 4.0312 85.5408 3.86079 86.3717 3.8584ZM36.9439 3.86084C37.9216 3.85844 38.6256 4.17246 39.0074 4.82886L39.0428 4.88965C39.3987 5.52606 39.4086 6.38486 39.1028 7.44946C38.551 9.38159 37.9984 11.3147 37.445 13.2485L37.4191 13.3394L37.3246 13.3391C36.6467 13.3374 35.9688 13.3374 35.2909 13.3391L35.1247 13.3396L35.1703 13.1799C35.6839 11.3808 36.1975 9.58078 36.7111 7.78003C36.8678 7.22743 36.8339 6.80479 36.6386 6.49731L36.6369 6.49463L36.6354 6.49194C36.4556 6.17549 36.1466 6.00917 35.6802 6.01147H35.6794C35.1076 6.01148 34.5912 6.1936 34.1289 6.55835L34.1287 6.55811C33.6799 6.92452 33.3673 7.41038 33.1944 8.02539C32.7008 9.76456 32.2079 11.5048 31.7159 13.2456L31.6903 13.3364L31.5961 13.3367C30.9161 13.3383 30.2378 13.3383 29.5611 13.3367L29.3964 13.3362L29.441 13.1777C30.2887 10.1765 31.1357 7.17609 31.9817 4.17651L32.0073 4.08569L32.1015 4.08545C32.7815 4.08379 33.4632 4.08379 34.1465 4.08545L34.3115 4.08569L34.2663 4.24463C34.209 4.4466 34.1518 4.64862 34.0945 4.85059C34.0713 4.93254 34.0477 5.01448 34.0245 5.09644C34.3855 4.75024 34.7955 4.46807 35.2499 4.25439L35.2504 4.25415C35.8107 3.99307 36.3748 3.85828 36.9439 3.86084ZM103.412 4.08545L103.583 4.08569L103.531 4.24829C102.575 7.24789 101.62 10.2485 100.664 13.2498L100.636 13.3367H100.545C99.8685 13.3367 99.1913 13.3374 98.5133 13.3391L98.3422 13.3396L98.394 13.1765C99.3463 10.1736 100.299 7.17143 101.251 4.17017L101.279 4.08301H101.37C102.052 4.08301 102.732 4.08379 103.412 4.08545ZM70.8961 0.672607C71.6137 2.88655 72.3286 5.10135 73.0414 7.31689C75.1058 5.08743 77.1719 2.85813 79.2395 0.628662L79.2766 0.588867L79.3308 0.588623C79.9907 0.58696 80.6517 0.586182 81.3133 0.586182H81.4822L81.4326 0.747803C80.1562 4.91461 78.8798 9.08227 77.6034 13.2507L77.5763 13.3391H77.4838C76.7956 13.3391 76.1064 13.3383 75.4166 13.3367L75.2482 13.3362L75.2975 13.1753C76.1241 10.4686 76.9505 7.76096 77.7771 5.05273C76.1983 6.74506 74.6211 8.43892 73.0453 10.1343L73.0082 10.1741H71.4021L71.374 10.0879C70.8235 8.39447 70.2706 6.69873 69.7156 5.00073C68.8878 7.74899 68.0599 10.4988 67.2321 13.2502L67.2052 13.3394L67.1122 13.3391C66.4226 13.3374 65.7338 13.3367 65.0458 13.3367H64.8776L64.926 13.1758C66.1775 9.00895 67.4283 4.84291 68.6781 0.677734L68.7047 0.588867L68.7975 0.588623C69.4574 0.58696 70.1174 0.586182 70.7773 0.586182H70.8683L70.8961 0.672607ZM7.68956 0.586182C9.2308 0.586198 10.3635 0.950959 11.0485 1.71509C11.7428 2.47121 11.8876 3.5164 11.5347 4.81689C11.181 6.12022 10.4816 7.13829 9.44166 7.86938L9.44141 7.86914C8.39962 8.60223 7.13195 8.96417 5.64508 8.96167C4.94563 8.96167 4.24543 8.96283 3.54446 8.96436C3.16055 10.3918 2.77752 11.8192 2.39519 13.2466L2.3703 13.3391H2.27438C1.56961 13.3391 0.865659 13.3383 0.162543 13.3367L0 13.3364L0.0419781 13.1794C1.15556 9.01427 2.2701 4.84824 3.38534 0.681396L3.40999 0.588623H3.5059C4.90042 0.58696 6.29504 0.586182 7.68956 0.586182ZM14.1669 0.586182C14.8482 0.587844 15.5303 0.588623 16.2133 0.588623H16.3773L16.3339 0.746826C15.9361 2.19569 15.5382 3.64595 15.1404 5.09766C15.4995 4.75017 15.9069 4.47059 16.3617 4.25464L16.3627 4.25415C16.9182 3.99551 17.4818 3.86099 18.0477 3.8584H18.0486C19.0267 3.86096 19.7356 4.17515 20.1224 4.83179C20.52 5.47127 20.5457 6.35336 20.243 7.44873C19.7094 9.38085 19.1752 11.313 18.64 13.2451L18.6146 13.3364L18.5199 13.3367C17.8433 13.3383 17.1657 13.3383 16.4874 13.3367L16.3236 13.3364L16.3671 13.1785C16.8624 11.3811 17.3576 9.58198 17.8529 7.78125L17.8793 7.6792C17.9994 7.17668 17.9544 6.7863 17.7685 6.49487L17.767 6.49268L17.7658 6.49048C17.5811 6.17316 17.2713 6.00903 16.8042 6.00903C16.2324 6.00904 15.7189 6.19097 15.262 6.55762C14.8137 6.92078 14.5078 7.41087 14.3394 8.02466C13.8641 9.76385 13.388 11.5048 12.911 13.2473L12.8856 13.3391H12.7904C12.1122 13.3391 11.4347 13.3383 10.7581 13.3367L10.5951 13.3364L10.6378 13.1787C11.773 9.01353 12.9092 4.84673 14.0461 0.678223L14.0712 0.585938L14.1669 0.586182ZM51.6306 0.746094C51.2085 2.19716 50.7855 3.64674 50.362 5.09497C50.7265 4.75028 51.139 4.46836 51.5979 4.25659C52.1554 3.99574 52.7217 3.85835 53.2907 3.86084C54.2678 3.86084 54.97 4.17203 55.3471 4.8291C55.7111 5.43183 55.7428 6.24545 55.4792 7.24976L55.4226 7.45312C55.1384 8.41918 54.854 9.38526 54.5698 10.3513C54.2856 11.3174 54.0015 12.2835 53.7173 13.2495L53.691 13.3391H51.3961L51.4432 13.179C51.9717 11.3782 52.4993 9.57834 53.0262 7.7793L53.0264 7.77905C53.1904 7.22395 53.1586 6.80127 52.9656 6.49414L52.9639 6.4917L52.9627 6.48926C52.7856 6.176 52.4794 6.01142 52.0089 6.00903C51.4402 6.00911 50.9236 6.19324 50.4557 6.55859C50.0024 6.92227 49.687 7.41286 49.509 8.02881C49.0021 9.76806 48.4942 11.5076 47.9856 13.2468L47.9595 13.3367H45.6675L45.7139 13.1768C46.3189 11.0934 46.924 9.00992 47.529 6.92651C48.134 4.84311 48.7388 2.75967 49.3438 0.67627L49.3702 0.585938L49.4641 0.586182C50.1453 0.587844 50.8274 0.587844 51.5103 0.586182L51.6772 0.585693L51.6306 0.746094ZM100.049 4.08545L100.29 4.08594L100.151 4.28247C98.0352 7.2837 95.9218 10.2849 93.811 13.2861L93.7737 13.3391H91.4632L91.4552 13.2229C91.2474 10.22 91.037 7.21877 90.8243 4.21924L90.815 4.08569L90.9487 4.08545C91.3212 4.08462 91.6936 4.08423 92.066 4.08423L93.3034 4.08569L93.3078 4.20605C93.3813 6.30846 93.4522 8.41011 93.5211 10.511C94.921 8.38696 96.3227 6.26295 97.7258 4.13892L97.7628 4.08301H97.83C98.5697 4.08301 99.3095 4.08379 100.049 4.08545ZM25.7719 9.69531C24.911 9.69782 24.2561 9.79458 23.7989 9.97803L23.7987 9.97827C23.3559 10.154 23.0975 10.4271 22.9979 10.7859C22.9278 11.0402 22.9712 11.2257 23.1048 11.3691C23.2591 11.5066 23.5127 11.5873 23.8916 11.5874C24.3879 11.585 24.8798 11.4431 25.3614 11.1589C25.8494 10.8649 26.1618 10.4639 26.3022 9.95361L26.3027 9.95166C26.3273 9.86751 26.3507 9.78246 26.3747 9.69702C26.1748 9.69674 25.9738 9.69661 25.7719 9.69531ZM85.7783 6.02637C85.1505 6.02637 84.5714 6.26349 84.0431 6.74121C83.5217 7.22439 83.1279 7.88966 82.8636 8.74658C82.6009 9.59615 82.5899 10.2483 82.7999 10.7163C82.9091 10.945 83.0646 11.1118 83.266 11.2227C83.4689 11.3343 83.7254 11.3933 84.0406 11.3933C84.6793 11.3933 85.2556 11.1577 85.7759 10.678C86.31 10.187 86.7112 9.51657 86.9728 8.67529C87.2407 7.81451 87.2462 7.16575 87.0245 6.70386L87.0238 6.70264C86.9182 6.47672 86.7653 6.3101 86.5637 6.19873C86.3607 6.08654 86.1011 6.02637 85.7783 6.02637ZM109.079 5.83447C108.548 5.83695 108.063 5.99979 107.618 6.33545L107.617 6.33618C107.219 6.63164 106.865 7.04453 106.561 7.58228H110.285C110.446 7.03491 110.411 6.62056 110.213 6.31909C110.008 6.00769 109.64 5.83698 109.079 5.83447ZM4.12777 6.78369C4.66696 6.78355 5.20759 6.783 5.74954 6.78149H5.75027C6.65329 6.78393 7.39452 6.60043 7.98341 6.24121L7.98365 6.24097C8.57343 5.88263 8.95122 5.3898 9.12194 4.75171L9.12218 4.75122C9.29546 4.11483 9.18188 3.64272 8.8132 3.31128L8.73852 3.24951C8.35071 2.9495 7.7449 2.78663 6.89173 2.78662H6.89124C6.32672 2.78505 5.76295 2.78402 5.19992 2.78394C4.84324 4.11571 4.48591 5.44897 4.12777 6.78369ZM103.661 0C104.077 0 104.401 0.116975 104.585 0.397461C104.784 0.668924 104.799 1.01749 104.67 1.42236C104.538 1.83702 104.307 2.16963 103.976 2.40869L103.976 2.40845C103.658 2.65247 103.283 2.76904 102.863 2.76904C102.455 2.76902 102.137 2.65233 101.95 2.38086L101.948 2.37817C101.774 2.11065 101.775 1.7538 101.904 1.34424C102.031 0.937918 102.249 0.617288 102.554 0.374023L102.555 0.373047C102.88 0.12078 103.248 1.04041e-05 103.661 0Z" fill="var(--fill-0, white)"/>
</svg>
