<svg preserveAspectRatio="none" width="100%" height="100%" overflow="visible" style="display: block;" viewBox="0 0 60 60" fill="none" xmlns="http://www.w3.org/2000/svg">
<g id="Overlay">
<rect width="60" height="60" rx="12.8571" fill="var(--fill-0, black)" fill-opacity="0.4"/>
<g id="Union">
<path d="M41.25 18.75C42.6307 18.75 43.75 19.8693 43.75 21.25V38.75C43.7498 40.1306 42.6306 41.25 41.25 41.25H18.75C17.3696 41.2498 16.2502 40.1304 16.25 38.75V21.25C16.25 19.8694 17.3695 18.7502 18.75 18.75H41.25ZM18.75 38.75H21.7969V34.4531H18.75V38.75ZM23.2031 38.75H36.7969V21.25H23.2031V38.75ZM38.2031 38.75H41.25V34.4531H38.2031V38.75ZM27.5186 25.7812C27.9159 25.561 28.4018 25.5747 28.7871 25.8154L33.7871 28.9404C34.1526 29.1689 34.375 29.569 34.375 30C34.3749 30.4308 34.1525 30.8312 33.7871 31.0596L28.7871 34.1846C28.4019 34.4251 27.9158 34.4389 27.5186 34.2188C27.1214 33.9985 26.8751 33.5791 26.875 33.125V26.875C26.875 26.4208 27.1215 26.0016 27.5186 25.7812ZM18.75 33.0469H21.7969V26.9531H18.75V33.0469ZM38.2031 33.0469H41.25V26.9531H38.2031V33.0469ZM18.75 25.5469H21.7969V21.25H18.75V25.5469ZM38.2031 25.5469H41.25V21.25H38.2031V25.5469Z" fill="var(--fill-0, #333333)"/>
<path d="M41.25 18.75C42.6307 18.75 43.75 19.8693 43.75 21.25V38.75C43.7498 40.1306 42.6306 41.25 41.25 41.25H18.75C17.3696 41.2498 16.2502 40.1304 16.25 38.75V21.25C16.25 19.8694 17.3695 18.7502 18.75 18.75H41.25ZM18.75 38.75H21.7969V34.4531H18.75V38.75ZM23.2031 38.75H36.7969V21.25H23.2031V38.75ZM38.2031 38.75H41.25V34.4531H38.2031V38.75ZM27.5186 25.7812C27.9159 25.561 28.4018 25.5747 28.7871 25.8154L33.7871 28.9404C34.1526 29.1689 34.375 29.569 34.375 30C34.3749 30.4308 34.1525 30.8312 33.7871 31.0596L28.7871 34.1846C28.4019 34.4251 27.9158 34.4389 27.5186 34.2188C27.1214 33.9985 26.8751 33.5791 26.875 33.125V26.875C26.875 26.4208 27.1215 26.0016 27.5186 25.7812ZM18.75 33.0469H21.7969V26.9531H18.75V33.0469ZM38.2031 33.0469H41.25V26.9531H38.2031V33.0469ZM18.75 25.5469H21.7969V21.25H18.75V25.5469ZM38.2031 25.5469H41.25V21.25H38.2031V25.5469Z" fill="url(#paint0_linear_0_24)"/>
</g>
</g>
<defs>
<linearGradient id="paint0_linear_0_24" x1="30" y1="18.75" x2="30" y2="41.25" gradientUnits="userSpaceOnUse">
<stop stop-color="#B9FEFF"/>
<stop offset="1" stop-color="#00D8DC"/>
</linearGradient>
</defs>
</svg>
