<svg preserveAspectRatio="none" width="100%" height="100%" overflow="visible" style="display: block;" viewBox="0 0 60 60" fill="none" xmlns="http://www.w3.org/2000/svg">
<g id="Overlay">
<rect width="60" height="60" rx="12.8571" fill="var(--fill-0, black)" fill-opacity="0.4"/>
<path id="Union" d="M38.75 16.2498C40.1306 16.2498 41.2498 17.3693 41.25 18.7498V41.2498C41.25 42.6305 40.1307 43.7498 38.75 43.7498H21.25C21.2051 43.7498 21.1608 43.7476 21.1172 43.743C19.7983 43.6739 18.75 42.586 18.75 41.2498V18.7498C18.7502 17.3693 19.8694 16.2498 21.25 16.2498H38.75ZM21.25 41.2498H23.75V18.7498H21.25V41.2498ZM26.25 41.2498H38.75V18.7498H26.25V41.2498ZM35 26.2498C35.6902 26.2498 36.2497 26.8097 36.25 27.4998C36.25 28.1902 35.6904 28.7498 35 28.7498H30C29.3096 28.7498 28.75 28.1902 28.75 27.4998C28.7503 26.8097 29.3098 26.2498 30 26.2498H35ZM35 21.2498C35.6902 21.2498 36.2498 21.8097 36.25 22.4998C36.25 23.1902 35.6904 23.7498 35 23.7498H30C29.3096 23.7498 28.75 23.1902 28.75 22.4998C28.7502 21.8097 29.3098 21.2498 30 21.2498H35Z" fill="url(#paint0_linear_0_45)"/>
</g>
<defs>
<linearGradient id="paint0_linear_0_45" x1="30" y1="16.2498" x2="30" y2="43.7498" gradientUnits="userSpaceOnUse">
<stop stop-color="#B9FEFF"/>
<stop offset="1" stop-color="#00D8DC"/>
</linearGradient>
</defs>
</svg>
