<svg xmlns="http://www.w3.org/2000/svg" viewBox="0 0 24 24" fill="none">
  <path d="m12 3 1.6 4.45a2.1 2.1 0 0 0 1.25 1.25L19.3 10.3l-4.45 1.6a2.1 2.1 0 0 0-1.25 1.25L12 17.6l-1.6-4.45a2.1 2.1 0 0 0-1.25-1.25L4.7 10.3l4.45-1.6a2.1 2.1 0 0 0 1.25-1.25L12 3Z" stroke="#00D8DC" stroke-width="1.75" stroke-linecap="round" stroke-linejoin="round"/>
  <path d="m5.6 15.2.62 1.72a.9.9 0 0 0 .52.52l1.72.62-1.72.62a.9.9 0 0 0-.52.52l-.62 1.72-.62-1.72a.9.9 0 0 0-.52-.52l-1.72-.62 1.72-.62a.9.9 0 0 0 .52-.52l.62-1.72Z" fill="#00D8DC"/>
  <path d="m18.2 3.8.45 1.25a.65.65 0 0 0 .38.38l1.25.45-1.25.45a.65.65 0 0 0-.38.38l-.45 1.25-.45-1.25a.65.65 0 0 0-.38-.38l-1.25-.45 1.25-.45a.65.65 0 0 0 .38-.38l.45-1.25Z" fill="#00D8DC"/>
</svg>
